# xmcd CD database file
#
# Track frame offsets:
#	150
#	17770
#	38690
#	55485
#	72355
#	93575
#	110145
#	128965
#	144711
#	163531
#
# Disc length: 2431 seconds
#
# Revision: 3
# Processed by: cddbd v1.5.2PL0 Copyright (c) Steve Scherf et al.
# Submitted via: CDex 1.70beta2
#
DISCID=91097d0a
DTITLE=Natalie Howard - Natalie Howard
DYEAR=2005
DGENRE=Country
TTITLE0=Is It Just Me
TTITLE1=I Can't
TTITLE2=Don't Be That Way Baby
TTITLE3=I Don't Want To Live Like That
TTITLE4=I Want To Get Out
TTITLE5=Are You For Real
TTITLE6=What Do You Want From Me
TTITLE7=You Never Knew Me
TTITLE8=Intoxicated
TTITLE9=The Long Night
EXTD=YEAR: 2005
EXTT0=
EXTT1=
EXTT2=
EXTT3=
EXTT4=
EXTT5=
EXTT6=
EXTT7=
EXTT8=
EXTT9=
PLAYORDER=
